<svg xmlns="http://www.w3.org/2000/svg" height="800" width="1200" fill="#ff000f" viewBox="-12.93 -8.25 112.06 49.5"><path d="M47 33h2c6-.3 10.2-5 10.2-10.6 0-1.9-.4-3.8-1.3-5.3H47zM36 17h10v16H36zm21.3-1c-1-1.4-2.4-2.5-3.9-3.3 1.8-1.3 3-3.4 3-5.7 0-3.9-3.1-7-7-7H47v16zM36 0h10v16H36zm38 33h2c6-.3 10.2-5 10.2-10.6 0-1.9-.4-3.8-1.3-5.3H74zM63 17h10v16H63zm21.3-1c-1-1.4-2.4-2.5-3.9-3.3 1.8-1.3 3-3.4 3-5.7 0-3.9-3.1-7-7-7H74v16zM63 0h10v16H63zM8.3 33l2.4-7H16v-9H5.7L0 33zM6 16h10V0h-4.3zm18.7 17H33l-5.7-16H17v9h5.3zM17 0v16h10L21.3 0z"/></svg>