<svg xmlns="http://www.w3.org/2000/svg" xmlns:xlink="http://www.w3.org/1999/xlink" version="1.1" id="Layer_1" x="0px" y="0px" viewBox="0 0 292 95.8" style="enable-background:new 0 0 292 95.8;" xml:space="preserve">
<style type="text/css">
	.st0{fill:#d9d9cf;}
	.st1{fill:#7a7a80;}
	.st2{fill:#d9d9cf;}
</style>
<path class="st0" d="M43.5,41.5l5.9,5.9c-1.1-1.1-1.8-2.4-2.2-3.8c-0.7-2.8,0-5.9,2.2-8.1l11.8-11.8c-0.9,0-1.5,0.4-1.5,0.4l0,0  c-1.2,0.8-2.8,1.4-4.6,1.4c-1.8,0-3.4-0.5-4.6-1.4c0,0-0.8-0.8-1.6,0l0,0l-5.4,5.4C40.2,33,40.2,38.3,43.5,41.5" fill="#66676e"/>
<path class="st1" d="M28.3,50l0.1,0.1l15,15l5.9,5.9l5.9-5.9c1.1-1.1,1.8-2.4,2.2-3.8c0.7-2.8,0-5.9-2.2-8.1l-5.9-5.9l-5.9-5.9  c-3.3-3.3-3.3-8.6,0-11.8l-15,15l-0.1,0.1c-0.6,0.7-1,1.6-1,2.6C27.3,48.4,27.7,49.4,28.3,50" fill="#66676e"/>
<path class="st2" d="M69.3,53.4l-5.9-5.9c1.1,1.1,1.8,2.4,2.2,3.8c0.7,2.8,0,5.9-2.2,8.1L51.5,71.1c0.9,0,1.5-0.4,1.5-0.4l0,0  c1.2-0.9,2.8-1.4,4.6-1.4c1.8,0,3.4,0.5,4.6,1.4c0,0,0.8,0.8,1.6,0l0,0l5.4-5.4C72.5,61.9,72.5,56.6,69.3,53.4" fill="#66676e"/>
<path class="st1" d="M84.4,44.8l-0.1-0.1l-15-15l-5.9-5.9l-5.9,5.9c-1.1,1.1-1.8,2.4-2.2,3.8c-0.7,2.8,0,5.9,2.2,8.1l5.9,5.9  l5.9,5.9c3.3,3.3,3.3,8.6,0,11.8l15-15l0.1-0.1c0.6-0.7,1-1.6,1-2.6C85.5,46.4,85.1,45.5,84.4,44.8" fill="#66676e"/>
<g>
	<path class="st1" d="M115.6,50.3c0,1.1-0.2,2-0.6,2.8c-0.4,0.8-1,1.5-1.7,2c-0.7,0.6-1.6,1-2.5,1.3c-1,0.3-2,0.4-3.2,0.4   c-1.6,0-3.1-0.2-4.4-0.6c-1.3-0.4-2.5-1.2-3.5-2.2l2.7-2.7c0.7,0.7,1.5,1.2,2.4,1.4s1.8,0.4,2.9,0.4c1.3,0,2.2-0.2,2.9-0.7   c0.6-0.5,1-1.1,1-2c0-0.8-0.2-1.4-0.7-1.8c-0.2-0.2-0.5-0.4-0.7-0.5c-0.3-0.1-0.7-0.2-1.2-0.3l-2.6-0.4c-1.8-0.3-3.2-0.9-4.2-1.8   c-1-1-1.5-2.4-1.5-4.2c0-1,0.2-1.9,0.5-2.7c0.3-0.8,0.8-1.5,1.5-2.1c0.6-0.6,1.4-1,2.4-1.3c0.9-0.3,2-0.5,3.2-0.5   c1.5,0,2.8,0.2,3.9,0.6c1.1,0.4,2.1,1,3.1,1.9l-2.7,2.6c-0.7-0.6-1.4-1.1-2.2-1.2s-1.5-0.3-2.2-0.3c-1.1,0-2,0.3-2.5,0.8   c-0.5,0.5-0.8,1.2-0.8,1.9c0,0.3,0.1,0.6,0.2,0.8c0.1,0.3,0.3,0.5,0.5,0.7c0.2,0.2,0.5,0.4,0.8,0.5c0.3,0.2,0.7,0.3,1.2,0.3   l2.5,0.4c1,0.1,1.8,0.3,2.5,0.6c0.6,0.3,1.2,0.6,1.7,1c0.6,0.5,1,1.2,1.3,2C115.5,48.4,115.6,49.3,115.6,50.3z" fill="#66676e"/>
	<path class="st1" d="M132.2,56.6l-5.6-9.8l-2.8,3.3v6.5h-4.2V35h4.2v9.4l7.6-9.4h5.1l-7.2,8.6l7.7,13H132.2z" fill="#66676e"/>
	<path class="st1" d="M148,47.8v8.9h-4.2v-8.9L137.3,35h4.6l4,8.7l4-8.7h4.6L148,47.8z" fill="#66676e"/>
	<path class="st1" d="M172.6,41.8c0,0.9-0.2,1.8-0.5,2.6s-0.8,1.5-1.4,2.2c-0.6,0.6-1.4,1.1-2.2,1.5c-0.9,0.4-1.9,0.5-3,0.5h-4.2   v8.1h-4.2V35h8.4c1.1,0,2.1,0.2,3,0.5c0.9,0.4,1.6,0.8,2.2,1.5c0.6,0.6,1.1,1.3,1.4,2.2S172.6,40.9,172.6,41.8z M168.4,41.8   c0-0.9-0.3-1.6-0.8-2.2c-0.6-0.5-1.3-0.8-2.3-0.8h-3.9v5.9h3.9c1,0,1.7-0.3,2.3-0.8C168.1,43.4,168.4,42.7,168.4,41.8z" fill="#66676e"/>
	<path class="st1" d="M191.4,45.8c0,0.9,0,1.8,0,2.6c0,0.8-0.1,1.6-0.2,2.3c-0.1,0.7-0.3,1.4-0.6,2c-0.3,0.6-0.7,1.2-1.3,1.7   c-0.8,0.8-1.6,1.4-2.6,1.8c-0.9,0.4-2,0.6-3.3,0.6s-2.3-0.2-3.3-0.6c-1-0.4-1.8-1-2.6-1.8c-0.5-0.5-1-1.1-1.3-1.7   c-0.3-0.6-0.5-1.3-0.6-2c-0.1-0.7-0.2-1.5-0.2-2.3c0-0.8,0-1.7,0-2.6s0-1.8,0-2.6c0-0.8,0.1-1.6,0.2-2.3c0.1-0.7,0.3-1.4,0.6-2   c0.3-0.6,0.7-1.2,1.3-1.7c0.8-0.8,1.6-1.4,2.6-1.8c1-0.4,2-0.6,3.3-0.6s2.3,0.2,3.3,0.6c0.9,0.4,1.8,1,2.6,1.8   c0.5,0.5,1,1.1,1.3,1.7c0.3,0.6,0.5,1.3,0.6,2c0.1,0.7,0.2,1.5,0.2,2.3C191.4,44,191.4,44.9,191.4,45.8z M187.2,45.8   c0-1,0-1.9,0-2.6c0-0.7-0.1-1.2-0.2-1.7c-0.1-0.4-0.2-0.8-0.3-1.1s-0.3-0.5-0.5-0.7c-0.3-0.3-0.7-0.6-1.1-0.8   c-0.5-0.2-1-0.3-1.6-0.3c-0.6,0-1.1,0.1-1.6,0.3c-0.5,0.2-0.8,0.5-1.2,0.8c-0.2,0.2-0.4,0.5-0.5,0.7c-0.1,0.3-0.2,0.6-0.3,1.1   c-0.1,0.4-0.1,1-0.2,1.7c0,0.7,0,1.5,0,2.6s0,1.9,0,2.6c0,0.7,0.1,1.2,0.2,1.7c0.1,0.4,0.2,0.8,0.3,1.1c0.1,0.3,0.3,0.5,0.5,0.7   c0.3,0.3,0.7,0.6,1.2,0.8c0.5,0.2,1,0.3,1.6,0.3c0.6,0,1.1-0.1,1.6-0.3c0.5-0.2,0.8-0.5,1.1-0.8c0.2-0.2,0.4-0.5,0.5-0.7   c0.1-0.3,0.3-0.6,0.3-1.1c0.1-0.4,0.1-1,0.2-1.7C187.2,47.7,187.2,46.9,187.2,45.8z" fill="#66676e"/>
	<path class="st1" d="M214.1,56.6h-3.5l-4-13.1l-4,13.1h-3.5L193.4,35h4.4l3.3,13.6l3.9-13.6h3.2l3.9,13.6l3.4-13.6h4.4L214.1,56.6z   " fill="#66676e"/>
	<path class="st1" d="M222.6,56.6V35h14.2v3.8h-10v5.1h8.5v3.8h-8.5v5.2h10v3.8H222.6z" fill="#66676e"/>
	<path class="st1" d="M252.5,56.6l-4.2-8.6h-3v8.6H241V35h8.5c1.1,0,2.1,0.2,2.9,0.5c0.9,0.4,1.6,0.8,2.2,1.4s1.1,1.3,1.4,2.1   s0.5,1.7,0.5,2.6c0,0.8-0.1,1.5-0.3,2.1s-0.5,1.1-0.9,1.6c-0.4,0.5-0.8,0.9-1.3,1.2c-0.5,0.3-1,0.6-1.5,0.8l4.8,9.3H252.5z    M252.3,41.6c0-0.8-0.3-1.5-0.8-2.1c-0.6-0.5-1.3-0.8-2.2-0.8h-4v5.7h4c0.9,0,1.7-0.3,2.2-0.8C252,43.2,252.3,42.5,252.3,41.6z" fill="#66676e"/>
</g>
</svg>